<svg xmlns="http://www.w3.org/2000/svg" width="1200" height="360" viewBox="0 0 1200 360">
<rect width="100%" height="100%" fill="white"/>
<text x="600.0" y="28.0" font-family="Arial,Helvetica,sans-serif" font-size="17" text-anchor="middle" font-weight="bold">E1-E4: distinct failure-transition tests and a bounded consequence-scope effect</text>
<rect x="60" y="78" width="260" height="210" fill="none" stroke="#333" />
<text x="190.0" y="60.0" font-family="Arial,Helvetica,sans-serif" font-size="14" text-anchor="middle" font-weight="bold">E1: depletion transition</text>
<text x="68.0" y="96.0" font-family="Arial,Helvetica,sans-serif" font-size="11" text-anchor="start" font-weight="normal">strong terminal effect</text>
<line x1="60.0" y1="288.0" x2="320.0" y2="288.0" stroke="#ddd" stroke-width="0.8" />
<text x="52.0" y="292.0" font-family="Arial,Helvetica,sans-serif" font-size="10" text-anchor="end" font-weight="normal">0.0</text>
<line x1="60.0" y1="246.0" x2="320.0" y2="246.0" stroke="#ddd" stroke-width="0.8" />
<text x="52.0" y="250.0" font-family="Arial,Helvetica,sans-serif" font-size="10" text-anchor="end" font-weight="normal">0.2</text>
<line x1="60.0" y1="204.0" x2="320.0" y2="204.0" stroke="#ddd" stroke-width="0.8" />
<text x="52.0" y="208.0" font-family="Arial,Helvetica,sans-serif" font-size="10" text-anchor="end" font-weight="normal">0.4</text>
<line x1="60.0" y1="162.0" x2="320.0" y2="162.0" stroke="#ddd" stroke-width="0.8" />
<text x="52.0" y="166.0" font-family="Arial,Helvetica,sans-serif" font-size="10" text-anchor="end" font-weight="normal">0.6</text>
<line x1="60.0" y1="120.0" x2="320.0" y2="120.0" stroke="#ddd" stroke-width="0.8" />
<text x="52.0" y="124.0" font-family="Arial,Helvetica,sans-serif" font-size="10" text-anchor="end" font-weight="normal">0.8</text>
<line x1="60.0" y1="78.0" x2="320.0" y2="78.0" stroke="#ddd" stroke-width="0.8" />
<text x="52.0" y="82.0" font-family="Arial,Helvetica,sans-serif" font-size="10" text-anchor="end" font-weight="normal">1.0</text>
<line x1="146.7" y1="247.2" x2="146.7" y2="98.7" stroke="#555" stroke-width="1.5" />
<line x1="141.7" y1="247.2" x2="151.7" y2="247.2" stroke="#555" stroke-width="1.5" />
<line x1="141.7" y1="98.7" x2="151.7" y2="98.7" stroke="#555" stroke-width="1.5" />
<circle cx="146.7" cy="173.0" r="4" fill="#111" />
<text x="146.7" y="308.0" font-family="Arial,Helvetica,sans-serif" font-size="11" text-anchor="middle" font-weight="normal">Terminal</text>
<line x1="233.3" y1="288.0" x2="233.3" y2="250.7" stroke="#555" stroke-width="1.5" />
<line x1="228.3" y1="288.0" x2="238.3" y2="288.0" stroke="#555" stroke-width="1.5" />
<line x1="228.3" y1="250.7" x2="238.3" y2="250.7" stroke="#555" stroke-width="1.5" />
<circle cx="233.3" cy="280.3" r="4" fill="#111" />
<text x="233.3" y="308.0" font-family="Arial,Helvetica,sans-serif" font-size="11" text-anchor="middle" font-weight="normal">Restore</text>
<rect x="350" y="78" width="260" height="210" fill="none" stroke="#333" />
<text x="480.0" y="60.0" font-family="Arial,Helvetica,sans-serif" font-size="14" text-anchor="middle" font-weight="bold">E2: impairment duration</text>
<text x="358.0" y="96.0" font-family="Arial,Helvetica,sans-serif" font-size="11" text-anchor="start" font-weight="normal">preregistered H1: not supported</text>
<line x1="350.0" y1="288.0" x2="610.0" y2="288.0" stroke="#ddd" stroke-width="0.8" />
<text x="342.0" y="292.0" font-family="Arial,Helvetica,sans-serif" font-size="10" text-anchor="end" font-weight="normal">0.0</text>
<line x1="350.0" y1="246.0" x2="610.0" y2="246.0" stroke="#ddd" stroke-width="0.8" />
<text x="342.0" y="250.0" font-family="Arial,Helvetica,sans-serif" font-size="10" text-anchor="end" font-weight="normal">0.2</text>
<line x1="350.0" y1="204.0" x2="610.0" y2="204.0" stroke="#ddd" stroke-width="0.8" />
<text x="342.0" y="208.0" font-family="Arial,Helvetica,sans-serif" font-size="10" text-anchor="end" font-weight="normal">0.4</text>
<line x1="350.0" y1="162.0" x2="610.0" y2="162.0" stroke="#ddd" stroke-width="0.8" />
<text x="342.0" y="166.0" font-family="Arial,Helvetica,sans-serif" font-size="10" text-anchor="end" font-weight="normal">0.6</text>
<line x1="350.0" y1="120.0" x2="610.0" y2="120.0" stroke="#ddd" stroke-width="0.8" />
<text x="342.0" y="124.0" font-family="Arial,Helvetica,sans-serif" font-size="10" text-anchor="end" font-weight="normal">0.8</text>
<line x1="350.0" y1="78.0" x2="610.0" y2="78.0" stroke="#ddd" stroke-width="0.8" />
<text x="342.0" y="82.0" font-family="Arial,Helvetica,sans-serif" font-size="10" text-anchor="end" font-weight="normal">1.0</text>
<line x1="402.0" y1="288.0" x2="402.0" y2="235.8" stroke="#555" stroke-width="1.5" />
<line x1="397.0" y1="288.0" x2="407.0" y2="288.0" stroke="#555" stroke-width="1.5" />
<line x1="397.0" y1="235.8" x2="407.0" y2="235.8" stroke="#555" stroke-width="1.5" />
<circle cx="402.0" cy="276.5" r="4" fill="#111" />
<text x="402.0" y="308.0" font-family="Arial,Helvetica,sans-serif" font-size="11" text-anchor="middle" font-weight="normal">0</text>
<line x1="454.0" y1="288.0" x2="454.0" y2="249.0" stroke="#555" stroke-width="1.5" />
<line x1="449.0" y1="288.0" x2="459.0" y2="288.0" stroke="#555" stroke-width="1.5" />
<line x1="449.0" y1="249.0" x2="459.0" y2="249.0" stroke="#555" stroke-width="1.5" />
<circle cx="454.0" cy="279.3" r="4" fill="#111" />
<text x="454.0" y="308.0" font-family="Arial,Helvetica,sans-serif" font-size="11" text-anchor="middle" font-weight="normal">5</text>
<line x1="506.0" y1="288.0" x2="506.0" y2="221.4" stroke="#555" stroke-width="1.5" />
<line x1="501.0" y1="288.0" x2="511.0" y2="288.0" stroke="#555" stroke-width="1.5" />
<line x1="501.0" y1="221.4" x2="511.0" y2="221.4" stroke="#555" stroke-width="1.5" />
<circle cx="506.0" cy="270.6" r="4" fill="#111" />
<text x="506.0" y="308.0" font-family="Arial,Helvetica,sans-serif" font-size="11" text-anchor="middle" font-weight="normal">15</text>
<line x1="558.0" y1="288.0" x2="558.0" y2="238.7" stroke="#555" stroke-width="1.5" />
<line x1="553.0" y1="288.0" x2="563.0" y2="288.0" stroke="#555" stroke-width="1.5" />
<line x1="553.0" y1="238.7" x2="563.0" y2="238.7" stroke="#555" stroke-width="1.5" />
<circle cx="558.0" cy="275.3" r="4" fill="#111" />
<text x="558.0" y="308.0" font-family="Arial,Helvetica,sans-serif" font-size="11" text-anchor="middle" font-weight="normal">inf</text>
<rect x="640" y="78" width="260" height="210" fill="none" stroke="#333" />
<text x="770.0" y="60.0" font-family="Arial,Helvetica,sans-serif" font-size="14" text-anchor="middle" font-weight="bold">E3: individual recovery</text>
<text x="648.0" y="96.0" font-family="Arial,Helvetica,sans-serif" font-size="11" text-anchor="start" font-weight="normal">preregistered H1: opposite direction</text>
<line x1="640.0" y1="288.0" x2="900.0" y2="288.0" stroke="#ddd" stroke-width="0.8" />
<text x="632.0" y="292.0" font-family="Arial,Helvetica,sans-serif" font-size="10" text-anchor="end" font-weight="normal">0.0</text>
<line x1="640.0" y1="246.0" x2="900.0" y2="246.0" stroke="#ddd" stroke-width="0.8" />
<text x="632.0" y="250.0" font-family="Arial,Helvetica,sans-serif" font-size="10" text-anchor="end" font-weight="normal">0.2</text>
<line x1="640.0" y1="204.0" x2="900.0" y2="204.0" stroke="#ddd" stroke-width="0.8" />
<text x="632.0" y="208.0" font-family="Arial,Helvetica,sans-serif" font-size="10" text-anchor="end" font-weight="normal">0.4</text>
<line x1="640.0" y1="162.0" x2="900.0" y2="162.0" stroke="#ddd" stroke-width="0.8" />
<text x="632.0" y="166.0" font-family="Arial,Helvetica,sans-serif" font-size="10" text-anchor="end" font-weight="normal">0.6</text>
<line x1="640.0" y1="120.0" x2="900.0" y2="120.0" stroke="#ddd" stroke-width="0.8" />
<text x="632.0" y="124.0" font-family="Arial,Helvetica,sans-serif" font-size="10" text-anchor="end" font-weight="normal">0.8</text>
<line x1="640.0" y1="78.0" x2="900.0" y2="78.0" stroke="#ddd" stroke-width="0.8" />
<text x="632.0" y="82.0" font-family="Arial,Helvetica,sans-serif" font-size="10" text-anchor="end" font-weight="normal">1.0</text>
<line x1="692.0" y1="288.0" x2="692.0" y2="235.8" stroke="#555" stroke-width="1.5" />
<line x1="687.0" y1="288.0" x2="697.0" y2="288.0" stroke="#555" stroke-width="1.5" />
<line x1="687.0" y1="235.8" x2="697.0" y2="235.8" stroke="#555" stroke-width="1.5" />
<circle cx="692.0" cy="276.5" r="4" fill="#111" />
<text x="692.0" y="308.0" font-family="Arial,Helvetica,sans-serif" font-size="11" text-anchor="middle" font-weight="normal">0</text>
<line x1="744.0" y1="288.0" x2="744.0" y2="219.0" stroke="#555" stroke-width="1.5" />
<line x1="739.0" y1="288.0" x2="749.0" y2="288.0" stroke="#555" stroke-width="1.5" />
<line x1="739.0" y1="219.0" x2="749.0" y2="219.0" stroke="#555" stroke-width="1.5" />
<circle cx="744.0" cy="266.4" r="4" fill="#111" />
<text x="744.0" y="308.0" font-family="Arial,Helvetica,sans-serif" font-size="11" text-anchor="middle" font-weight="normal">2</text>
<line x1="796.0" y1="288.0" x2="796.0" y2="242.4" stroke="#555" stroke-width="1.5" />
<line x1="791.0" y1="288.0" x2="801.0" y2="288.0" stroke="#555" stroke-width="1.5" />
<line x1="791.0" y1="242.4" x2="801.0" y2="242.4" stroke="#555" stroke-width="1.5" />
<circle cx="796.0" cy="277.7" r="4" fill="#111" />
<text x="796.0" y="308.0" font-family="Arial,Helvetica,sans-serif" font-size="11" text-anchor="middle" font-weight="normal">5</text>
<line x1="848.0" y1="288.0" x2="848.0" y2="264.7" stroke="#555" stroke-width="1.5" />
<line x1="843.0" y1="288.0" x2="853.0" y2="288.0" stroke="#555" stroke-width="1.5" />
<line x1="843.0" y1="264.7" x2="853.0" y2="264.7" stroke="#555" stroke-width="1.5" />
<circle cx="848.0" cy="284.3" r="4" fill="#111" />
<text x="848.0" y="308.0" font-family="Arial,Helvetica,sans-serif" font-size="11" text-anchor="middle" font-weight="normal">10</text>
<rect x="930" y="78" width="260" height="210" fill="none" stroke="#333" />
<text x="1060.0" y="60.0" font-family="Arial,Helvetica,sans-serif" font-size="14" text-anchor="middle" font-weight="bold">E4: consequence scope</text>
<text x="938.0" y="96.0" font-family="Arial,Helvetica,sans-serif" font-size="11" text-anchor="start" font-weight="normal">preregistered support; modest</text>
<line x1="930.0" y1="253.0" x2="1190.0" y2="253.0" stroke="#ddd" stroke-width="0.8" />
<text x="922.0" y="257.0" font-family="Arial,Helvetica,sans-serif" font-size="10" text-anchor="end" font-weight="normal">0.0</text>
<line x1="930.0" y1="194.7" x2="1190.0" y2="194.7" stroke="#ddd" stroke-width="0.8" />
<text x="922.0" y="198.7" font-family="Arial,Helvetica,sans-serif" font-size="10" text-anchor="end" font-weight="normal">0.1</text>
<line x1="930.0" y1="136.3" x2="1190.0" y2="136.3" stroke="#ddd" stroke-width="0.8" />
<text x="922.0" y="140.3" font-family="Arial,Helvetica,sans-serif" font-size="10" text-anchor="end" font-weight="normal">0.2</text>
<line x1="930.0" y1="78.0" x2="1190.0" y2="78.0" stroke="#ddd" stroke-width="0.8" />
<text x="922.0" y="82.0" font-family="Arial,Helvetica,sans-serif" font-size="10" text-anchor="end" font-weight="normal">0.3</text>
<line x1="930.0" y1="253.0" x2="1190.0" y2="253.0" stroke="#555" stroke-width="1.0" />
<circle cx="1042.0" cy="229.2" r="3" fill="#777" />
<circle cx="1048.0" cy="248.4" r="3" fill="#777" />
<circle cx="1054.0" cy="250.6" r="3" fill="#777" />
<circle cx="1060.0" cy="238.4" r="3" fill="#777" />
<circle cx="1066.0" cy="251.5" r="3" fill="#777" />
<circle cx="1072.0" cy="250.2" r="3" fill="#777" />
<circle cx="1078.0" cy="281.4" r="3" fill="#777" />
<circle cx="1044.0" cy="247.1" r="3" fill="#777" />
<circle cx="1050.0" cy="247.7" r="3" fill="#777" />
<circle cx="1056.0" cy="147.5" r="3" fill="#777" />
<circle cx="1062.0" cy="251.6" r="3" fill="#777" />
<circle cx="1068.0" cy="200.3" r="3" fill="#777" />
<circle cx="1074.0" cy="232.9" r="3" fill="#777" />
<circle cx="1080.0" cy="244.9" r="3" fill="#777" />
<circle cx="1042.0" cy="250.8" r="3" fill="#777" />
<circle cx="1048.0" cy="238.6" r="3" fill="#777" />
<circle cx="1054.0" cy="239.6" r="3" fill="#777" />
<circle cx="1060.0" cy="238.9" r="3" fill="#777" />
<circle cx="1066.0" cy="236.4" r="3" fill="#777" />
<circle cx="1072.0" cy="235.4" r="3" fill="#777" />
<circle cx="1078.0" cy="251.3" r="3" fill="#777" />
<circle cx="1044.0" cy="219.5" r="3" fill="#777" />
<circle cx="1050.0" cy="251.8" r="3" fill="#777" />
<circle cx="1056.0" cy="250.2" r="3" fill="#777" />
<circle cx="1062.0" cy="248.8" r="3" fill="#777" />
<circle cx="1068.0" cy="250.9" r="3" fill="#777" />
<circle cx="1074.0" cy="251.8" r="3" fill="#777" />
<circle cx="1080.0" cy="237.4" r="3" fill="#777" />
<circle cx="1042.0" cy="90.1" r="3" fill="#777" />
<circle cx="1048.0" cy="252.0" r="3" fill="#777" />
<line x1="1060.0" y1="246.0" x2="1060.0" y2="221.6" stroke="#111" stroke-width="2" />
<line x1="1053.0" y1="246.0" x2="1067.0" y2="246.0" stroke="#111" stroke-width="2" />
<line x1="1053.0" y1="221.6" x2="1067.0" y2="221.6" stroke="#111" stroke-width="2" />
<polygon points="1060.0,230.5095269007776 1065.0,235.5095269007776 1060.0,240.5095269007776 1055.0,235.5095269007776" fill="#111" />
<text x="1060.0" y="308.0" font-family="Arial,Helvetica,sans-serif" font-size="11" text-anchor="middle" font-weight="normal">Shared - individual</text>
<text x="1060.0" y="327.0" font-family="Arial,Helvetica,sans-serif" font-size="10" text-anchor="middle" font-weight="normal">mean +0.030; 95% CI [+0.012, +0.054]</text>
<text x="600.0" y="347.0" font-family="Arial,Helvetica,sans-serif" font-size="10" text-anchor="middle" font-weight="normal">E1-E3 show condition mean +/- 1 SD. E4 shows 30 collapsed seed effects and the paired 95% CI.</text>
</svg>